<svg width="64" height="26" viewBox="0 0 64 26" fill="none" xmlns="http://www.w3.org/2000/svg">
<path d="M4.37037 0H10.836H26.0741H49.7778H61.3069L64 9.28571L59.6296 26H48.2894L48.2048 24.1429H31.1197V26H14.2222H2.69312L0 16.7143L4.37037 0Z" fill="#F50395"/>
<path d="M25.666 8.04688L23.9365 18H22.3096L19.1855 10.8018L17.9414 18H16.2598L17.9893 8.04688H19.6162L22.7471 15.2588L23.998 8.04688H25.666ZM32.4746 16.6396L32.2354 18H27.1016L27.334 16.6396H32.4746ZM29.3096 8.04688L27.5801 18H25.8984L27.6279 8.04688H29.3096ZM32.5703 12.2031L32.3379 13.543H27.8672L28.1064 12.2031H32.5703ZM33.9238 8.04688L33.6846 9.41406H28.585L28.8311 8.04688H33.9238ZM36.4395 15.6895L39.5361 8.04688H40.5615L40.1445 10.1113L36.8701 18H35.7969L36.4395 15.6895ZM36.1934 8.04688L36.5625 15.7852L36.3574 18H35.2432L34.5596 8.04688H36.1934ZM41.5664 15.6074L44.2734 8.04688H45.9688L42.1816 18H41.0469L41.5664 15.6074ZM40.9443 8.04688L41.6484 15.8672L41.6006 18H40.5615L39.7686 9.96094L39.9463 8.04688H40.9443Z" fill="white"/>
</svg>
